<?xml version="1.0" encoding="UTF-8"?>
<!DOCTYPE svg PUBLIC "-//W3C//DTD SVG 1.1//EN" "http://www.w3.org/Graphics/SVG/1.1/DTD/svg11.dtd">
<!-- Creator: CorelDRAW -->
<svg xmlns="http://www.w3.org/2000/svg" xml:space="preserve" width="2048px" height="2048px" style="shape-rendering:geometricPrecision; text-rendering:geometricPrecision; image-rendering:optimizeQuality; fill-rule:evenodd; clip-rule:evenodd"
viewBox="0 0 2048 2048"
 xmlns:xlink="http://www.w3.org/1999/xlink">
 <defs>
  <style type="text/css">
   <![CDATA[
    .fil2 {fill:none}
    .fil9 {fill:#253035}
    .fil16 {fill:#37474F}
    .fil4 {fill:#494F56}
    .fil3 {fill:#555A61}
    .fil11 {fill:#7B838E}
    .fil10 {fill:#989FAA}
    .fil1 {fill:#E57373}
    .fil0 {fill:#EF9A9A}
    .fil5 {fill:#2A3541;fill-rule:nonzero}
    .fil8 {fill:#49692E;fill-rule:nonzero}
    .fil12 {fill:#526072;fill-rule:nonzero}
    .fil15 {fill:#7CB342;fill-rule:nonzero}
    .fil6 {fill:#873636;fill-rule:nonzero}
    .fil7 {fill:#8E652D;fill-rule:nonzero}
    .fil13 {fill:#EF5350;fill-rule:nonzero}
    .fil14 {fill:#FFAB40;fill-rule:nonzero}
   ]]>
  </style>
   <clipPath id="id0">
    <path d="M1024 -0.0011811c565.539,0 1024,458.462 1024,1024 0,565.539 -458.462,1024 -1024,1024 -565.539,0 -1024,-458.462 -1024,-1024 0,-565.539 458.462,-1024 1024,-1024z"/>
   </clipPath>
 </defs>
 <g id="Layer_x0020_1">
  <metadata id="CorelCorpID_0Corel-Layer"/>
  <path class="fil0" d="M1024 -0.0011811c565.539,0 1024,458.462 1024,1024 0,565.539 -458.462,1024 -1024,1024 -565.539,0 -1024,-458.462 -1024,-1024 0,-565.539 458.462,-1024 1024,-1024z"/>
  <g style="clip-path:url(#id0)">
   <g id="_289371512">
    <g>
     <polygon id="_2926826961" class="fil1" points="1579.56,734.763 2715.44,1870.65 2716.56,1872.14 2717.54,1873.75 2718.35,1875.45 2719.01,1877.23 2719.49,1879.1 2719.78,1881.03 2719.88,1883.01 1584,747.132 1583.9,745.144 1583.61,743.213 1583.13,741.349 1582.47,739.563 1581.65,737.864 1580.68,736.26 "/>
     <polygon id="_292682528" class="fil1" points="1392.9,589.41 2528.78,1725.29 2529.89,1726.79 2530.87,1728.39 2531.69,1730.09 2532.34,1731.88 2532.82,1733.74 2533.12,1735.67 2533.22,1737.66 1397.33,601.778 1397.23,599.79 1396.94,597.859 1396.46,595.995 1395.81,594.21 1394.99,592.51 1394.01,590.906 "/>
     <polygon id="_292683128" class="fil1" points="1584,922.133 2719.88,2058.02 2719.88,2096.9 1584,961.02 "/>
     <polygon id="_292683176" class="fil1" points="1584,961.02 2719.88,2096.9 2719.88,2582.11 1584,1446.22 "/>
     <polygon id="_292683896" class="fil1" points="1584,1446.22 2719.88,2582.11 2719.78,2584.09 2719.49,2586.03 2719.01,2587.89 2718.35,2589.68 2717.54,2591.37 2716.56,2592.98 2715.44,2594.48 2714.19,2595.86 2712.81,2597.11 2711.31,2598.23 2709.71,2599.2 2708.01,2600.02 2706.22,2600.68 2704.36,2601.16 2702.43,2601.45 2700.44,2601.55 1564.56,1465.67 1566.54,1465.57 1568.48,1465.27 1570.34,1464.79 1572.13,1464.14 1573.82,1463.32 1575.43,1462.35 1576.93,1461.23 1578.31,1459.97 1579.56,1458.59 1580.68,1457.1 1581.65,1455.49 1582.47,1453.79 1583.13,1452.01 1583.61,1450.14 1583.9,1448.21 "/>
     <polygon id="_292683272" class="fil1" points="650.666,1320.31 1786.55,2456.2 1619.33,2456.2 483.444,1320.31 "/>
     <polygon id="_292683296" class="fil1" points="670.111,1465.67 1805.99,2601.55 1804,2601.45 1802.07,2601.16 1800.21,2600.68 1798.42,2600.02 1796.72,2599.2 1795.12,2598.23 1793.62,2597.11 657.742,1461.23 659.239,1462.35 660.843,1463.32 662.542,1464.14 664.329,1464.79 666.192,1465.27 668.123,1465.57 "/>
     <polygon id="_292683320" class="fil1" points="1564.56,1465.67 2700.44,2601.55 1805.99,2601.55 670.111,1465.67 "/>
     <polygon id="_292683344" class="fil1" points="483.444,1320.31 1619.33,2456.2 1617.34,2456.1 1615.41,2455.8 1613.54,2455.32 1611.76,2454.67 1610.06,2453.85 1608.45,2452.88 1606.96,2451.76 471.076,1315.87 472.572,1316.99 474.176,1317.97 475.876,1318.79 477.663,1319.44 479.526,1319.92 481.457,1320.21 "/>
     <polygon id="_292683656" class="fil1" points="1397.33,601.778 2533.22,1737.66 2533.22,1863.57 1397.33,727.686 "/>
     <polygon id="_292683560" class="fil1" points="1584,747.132 2719.88,1883.01 2719.88,2058.02 1584,922.133 "/>
    </g>
    <path id="_289371584" class="fil1" d="M1397.33 727.686l167.222 0c10.7386,0 19.4445,8.70709 19.4445,19.4457l0 175.002 0 38.8866 0 485.204c0,10.7386 -8.70591,19.4445 -19.4445,19.4445l-894.446 0c-10.7386,0 -19.4445,-8.70591 -19.4445,-19.4445l0 -125.91 -167.222 0c-10.7386,0 -19.4445,-8.70591 -19.4445,-19.4445l0 -485.204 0 -38.8878 0 -174.999c0,-10.7386 8.70591,-19.4457 19.4445,-19.4457l894.446 0c10.7386,0 19.4445,8.70709 19.4445,19.4457l0 125.908z"/>
   </g>
  </g>
  <path class="fil2" d="M1024 -0.0011811c565.539,0 1024,458.462 1024,1024 0,565.539 -458.462,1024 -1024,1024 -565.539,0 -1024,-458.462 -1024,-1024 0,-565.539 458.462,-1024 1024,-1024z"/>
  <path class="fil3" d="M1397.33 776.779l0 524.091c0,10.7386 -8.70709,19.4445 -19.4457,19.4445l-894.445 0c-10.7386,0 -19.4445,-8.70591 -19.4445,-19.4445l0 -524.091 933.335 0z"/>
  <polygon class="fil4" points="1397.33,776.779 1397.33,815.665 464,815.665 464,776.779 "/>
  <path class="fil5" d="M483.444 582.332l894.445 0c10.7386,0 19.4457,8.70591 19.4457,19.4457l0 174.999 -933.335 0 0 -174.999c0,-10.7398 8.70591,-19.4457 19.4445,-19.4457z"/>
  <polygon class="fil6" points="1241.87,639.674 1241.87,717.451 1319.65,717.451 1319.65,639.674 "/>
  <polygon class="fil7" points="969.461,717.451 1047.24,717.451 1047.24,639.674 969.461,639.674 "/>
  <polygon class="fil8" points="1105.47,639.674 1105.47,717.451 1183.24,717.451 1183.24,639.674 "/>
  <polygon class="fil9" points="1056.39,1155.92 1056.39,1127.87 1260.76,1127.87 1260.76,1155.92 "/>
  <polygon class="fil9" points="846.623,1117.16 978.365,1048.21 846.623,979.859 846.623,941.176 1012.98,1029.83 1012.98,1066.15 846.623,1155.92 "/>
  <polygon class="fil9" points="766.935,1155.92 600.577,1066.15 600.577,1029.83 766.935,941.176 766.935,979.859 635.018,1048.21 766.935,1117.16 "/>
  <path class="fil10" d="M1584 922.133l0 524.091c0,10.7386 -8.70591,19.4445 -19.4457,19.4445l-894.445 0c-10.7386,0 -19.4445,-8.70591 -19.4445,-19.4445l0 -524.091 933.335 0z"/>
  <polygon class="fil11" points="1584,922.133 1584,961.02 650.666,961.02 650.666,922.133 "/>
  <path class="fil12" d="M670.111 727.687l894.445 0c10.7398,0 19.4457,8.70591 19.4457,19.4445l0 175.001 -933.335 0 0 -175.001c0,-10.7386 8.70591,-19.4445 19.4445,-19.4445z"/>
  <polygon class="fil13" points="1428.53,785.027 1428.53,862.804 1506.31,862.804 1506.31,785.027 "/>
  <polygon class="fil14" points="1156.13,862.804 1233.9,862.804 1233.9,785.027 1156.13,785.027 "/>
  <polygon class="fil15" points="1292.13,785.027 1292.13,862.804 1369.91,862.804 1369.91,785.027 "/>
  <polygon class="fil16" points="1243.06,1301.27 1243.06,1273.22 1447.42,1273.22 1447.42,1301.27 "/>
  <polygon class="fil16" points="1033.29,1262.52 1165.03,1193.57 1033.29,1125.21 1033.29,1086.53 1199.65,1175.19 1199.65,1211.51 1033.29,1301.27 "/>
  <polygon class="fil16" points="953.602,1301.27 787.243,1211.51 787.243,1175.19 953.602,1086.53 953.602,1125.21 821.684,1193.57 953.602,1262.52 "/>
 </g>
</svg>
